Format                                   : AVI
Format/Info                              : Audio Video Interleave
File size                                : 1.70 GiB
Duration                                 : 1h 37mn
Overall bit rate                         : 2 501 Kbps
Writing application                      : VirtualDubMod 1.5.10.2 (build 2540/release)
Writing library                          : VirtualDubMod build 2540/release

Video
ID                                       : 0
Format                                   : MPEG-4 Visual
Format profile                           : Advanced Simple@L5
Format settings, BVOP                    : 2
Format settings, QPel                    : No
Format settings, GMC                     : No warppoints
Format settings, Matrix                  : Custom
Codec ID                                 : XVID
Codec ID/Hint                            : XviD
Duration                                 : 1h 37mn
Bit rate                                 : 2 044 Kbps
Width                                    : 720 pixels
Height                                   : 400 pixels
Display aspect ratio                     : 16:9
Frame rate                               : 23.976 fps
Color space                              : YUV
Chroma subsampling                       : 4:2:0
Bit depth                                : 8 bits
Scan type                                : Progressive
Compression mode                         : Lossy
Bits/(Pixel*Frame)                       : 0.296
Stream size                              : 1.39 GiB (82%)
Writing library                          : XviD 1.2.0.dev49

Audio
ID                                       : 1
Format                                   : AC-3
Format/Info                              : Audio Coding 3
Mode extension                           : CM (complete main)
Format settings, Endianness              : Big
Codec ID                                 : 2000
Duration                                 : 1h 37mn
Bit rate mode                            : Constant
Bit rate                                 : 448 Kbps
Channel(s)                               : 6 channels
Channel positions                        : Front: L C R, Side: L R, LFE
Sampling rate                            : 48.0 KHz
Bit depth                                : 16 bits
Compression mode                         : Lossy
Stream size                              : 312 MiB (18%)
Alignment                                : Split accross interleaves
Interleave, duration                     : 42 ms (1.00 video frame)
Interleave, preload duration             : 500 ms

Screenshots: 
http://i292.photobucket.com/albums/mm35/FLAWL3SS_RG/Flixxx2/Cruel/1.png 
http://i292.photobucket.com/albums/mm35/FLAWL3SS_RG/Flixxx2/Cruel/2.png 
http://i292.photobucket.com/albums/mm35/FLAWL3SS_RG/Flixxx2/Cruel/3.png 
http://i292.photobucket.com/albums/mm35/FLAWL3SS_RG/Flixxx2/Cruel/4.png 
http://i292.photobucket.com/albums/mm35/FLAWL3SS_RG/Flixxx2/Cruel/5.png 
http://i292.photobucket.com/albums/mm35/FLAWL3SS_RG/Flixxx2/Cruel/6.png